<svg width="23" height="23" viewBox="0 0 23 23" fill="none" xmlns="http://www.w3.org/2000/svg">
<path d="M22.6375 20.0975L22.3825 19.8725C21.659 19.228 21.0258 18.4888 20.5 17.675C19.9256 16.552 19.5814 15.3255 19.4875 14.0675V10.3625C19.4924 8.38676 18.7757 6.47716 17.472 4.99253C16.1683 3.5079 14.3673 2.55044 12.4075 2.30005V1.33255C12.4075 1.067 12.302 0.812329 12.1142 0.624558C11.9264 0.436787 11.6718 0.331299 11.4062 0.331299C11.1407 0.331299 10.886 0.436787 10.6982 0.624558C10.5105 0.812329 10.405 1.067 10.405 1.33255V2.31505C8.46267 2.58349 6.68345 3.54674 5.39687 5.02638C4.11029 6.50602 3.40352 8.40178 3.40748 10.3625V14.0675C3.31354 15.3255 2.96931 16.552 2.39498 17.675C1.87814 18.4868 1.25512 19.2259 0.542476 19.8725L0.287476 20.0975V22.2125H22.6375V20.0975Z" fill="#999999"/>
</svg>
