<svg width="23" height="23" viewBox="0 0 23 23" fill="none" xmlns="http://www.w3.org/2000/svg">
<path d="M22.6376 20.0975L22.3826 19.8725C21.6592 19.2279 21.026 18.4888 20.5001 17.675C19.9258 16.5519 19.5815 15.3254 19.4876 14.0675V10.3625C19.4926 8.3867 18.7759 6.47709 17.4722 4.99247C16.1684 3.50784 14.3675 2.55038 12.4076 2.29999V1.33249C12.4076 1.06694 12.3021 0.812268 12.1143 0.624497C11.9266 0.436726 11.6719 0.331238 11.4063 0.331238C11.1408 0.331238 10.8861 0.436726 10.6984 0.624497C10.5106 0.812268 10.4051 1.06694 10.4051 1.33249V2.31499C8.46279 2.58343 6.68358 3.54668 5.39699 5.02632C4.11041 6.50596 3.40365 8.40172 3.4076 10.3625V14.0675C3.31366 15.3254 2.96943 16.5519 2.3951 17.675C1.87826 18.4867 1.25524 19.2258 0.542598 19.8725L0.287598 20.0975V22.2125H22.6376V20.0975Z" fill="#FAFAFA"/>
</svg>
